<svg width="24" height="24" viewBox="0 0 24 24" fill="none" xmlns="http://www.w3.org/2000/svg">
  <path d="M12 22C17.5228 22 22 17.5228 22 12C22 6.47715 17.5228 2 12 2C6.47715 2 2 6.47715 2 12C2 13.8214 2.48697 15.5291 3.33782 17L2.5 21.5L7 20.6622C8.47087 21.513 10.1786 22 12 22Z" stroke="#2563EB" stroke-width="2" stroke-linecap="round" stroke-linejoin="round"/>
  <path d="M12 13V13.01" stroke="#2563EB" stroke-width="2" stroke-linecap="round"/>
  <path d="M9 10C9 8.34315 10.3431 7 12 7C13.6569 7 15 8.34315 15 10C15 11.3872 14.0301 12.5521 12.7413 12.8913C12.3178 13.0201 12 13.3865 12 13.8293V14" stroke="#2563EB" stroke-width="2" stroke-linecap="round"/>
</svg> 