<svg width="32" height="32" viewBox="0 0 32 32" fill="none" xmlns="http://www.w3.org/2000/svg">
  <circle cx="16" cy="16" r="16" fill="#1976D2"/>
  <path d="M16 8C16 8 19 14.5 19 16.5C19 18.5 17.5 20 16 20C14.5 20 13 18.5 13 16.5C13 14.5 16 8 16 8Z" fill="white"/>
  <path d="M23 8C23 8 26 14.5 26 16.5C26 18.5 24.5 20 23 20C21.5 20 21.5 23 21.5 23C21.5 23 21.5 20 20 20C18.5 20 17 18.5 17 16.5C17 14.5 20 8 20 8" fill="white"/>
  <path d="M9 8C9 8 12 14.5 12 16.5C12 18.5 10.5 20 9 20C7.5 20 6 18.5 6 16.5C6 14.5 9 8 9 8Z" fill="white"/>
</svg> 